<?xml version="1.0" encoding="utf-8"?>
<svg viewBox="39.527 119.341 220.946 61.064" xmlns="http://www.w3.org/2000/svg">
  <defs>
    <linearGradient data-v-fde0c5aa="" gradientTransform="rotate(25)" id="e0b84c97-7123-4f6f-96f7-eb359b8dae8c" x1="0%" y1="0%" x2="100%" y2="0%">
      <stop data-v-fde0c5aa="" offset="0" stop-color="#0015D6" stop-opacity="1"/>
      <stop data-v-fde0c5aa="" offset="1" stop-color="#0989FB" stop-opacity="1"/>
    </linearGradient>
  </defs>
  <g data-v-fde0c5aa="" id="9c230697-3f50-4b55-b1d2-4874e6758a68" fill="#041F57" transform="matrix(4.100858, 0, 0, 4.100858, 105.848763, 112.190094)">
    <path d="M2.31 8.72L2.31 7.11L0.88 7.11L0.88 14L2.31 14L2.31 10.60C2.31 9.18 3.30 8.34 4.90 8.34L4.90 6.93C3.68 6.93 2.77 7.59 2.31 8.72ZM12.73 10.57C12.71 8.48 11.19 6.99 9.06 6.99C6.93 6.99 5.38 8.48 5.38 10.56C5.38 12.63 6.93 14.13 9.06 14.13C10.75 14.13 12.22 13.03 12.61 11.51L11.16 11.51C10.89 12.33 10.05 12.95 9.07 12.95C7.88 12.95 6.97 12.15 6.79 11.00L12.68 11.00C12.71 10.86 12.73 10.71 12.73 10.57ZM9.07 8.16C10.21 8.16 11.12 8.88 11.35 9.90L6.83 9.90C7.08 8.86 7.95 8.16 9.07 8.16ZM19.54 4.31L19.54 8.11C18.94 7.41 18.06 6.99 17.04 6.99C15.09 6.99 13.66 8.48 13.66 10.56C13.66 12.63 15.09 14.13 17.04 14.13C18.06 14.13 18.94 13.71 19.54 13.01L19.54 14L20.97 14L20.97 4.31ZM17.33 12.88C16.06 12.88 15.13 11.91 15.13 10.56C15.13 9.21 16.06 8.23 17.33 8.23C18.62 8.23 19.54 9.21 19.54 10.56C19.54 11.91 18.62 12.88 17.33 12.88ZM26.01 6.99C23.88 6.99 22.33 8.48 22.33 10.56C22.33 12.63 23.88 14.13 26.01 14.13C28.14 14.13 29.68 12.63 29.68 10.56C29.68 8.48 28.14 6.99 26.01 6.99ZM26.00 8.23C27.29 8.23 28.21 9.21 28.21 10.56C28.21 11.91 27.29 12.88 26.00 12.88C24.72 12.88 23.80 11.91 23.80 10.56C23.80 9.21 24.72 8.23 26.00 8.23ZM37.59 14L34.89 10.53L37.56 7.11L35.90 7.11L33.85 9.74L31.81 7.11L30.16 7.11L32.83 10.54L30.11 14L31.78 14L33.85 11.31L35.94 14Z"/>
  </g>
  <g data-v-fde0c5aa="" id="d0b32eac-2657-4a6a-b00e-13f66ddb0a8e" stroke="none" fill="url(#e0b84c97-7123-4f6f-96f7-eb359b8dae8c)" transform="matrix(0.604056, 0, 0, 0.604056, 38.025944, 121.486732)">
    <path d="M50-2.797c-4.349 0-7.966 3.185-8.653 7.338C19.672 8.6 3.268 27.618 3.268 50.471c0 25.81 20.922 46.732 46.732 46.732 25.811 0 46.732-20.922 46.732-46.732 0-22.853-16.404-41.871-38.08-45.929C57.966.388 54.35-2.797 50-2.797zM41.384 7.499c.718 4.116 4.294 7.229 8.616 7.229s7.897-3.112 8.616-7.229C78.688 11.5 93.812 29.222 93.812 50.471c0 24.197-19.614 43.812-43.812 43.812-24.196 0-43.812-19.614-43.812-43.812 0-21.249 15.124-38.971 35.196-42.972z"/>
    <path d="M67.524 50.471c0 9.679-7.846 17.524-17.524 17.524s-17.524-7.846-17.524-17.524S40.322 32.947 50 32.947s17.524 7.845 17.524 17.524z"/>
  </g>
</svg>