<?xml version="1.0" encoding="utf-8"?>
<svg viewBox="39.527 119.341 57.324 61.342" xmlns="http://www.w3.org/2000/svg">
  <defs>
    <linearGradient data-v-fde0c5aa="" gradientTransform="rotate(25)" id="e0b84c97-7123-4f6f-96f7-eb359b8dae8c" x1="0%" y1="0%" x2="100%" y2="0%">
      <stop data-v-fde0c5aa="" offset="0" stop-color="#0015D6" stop-opacity="1"/>
      <stop data-v-fde0c5aa="" offset="1" stop-color="#0989FB" stop-opacity="1"/>
    </linearGradient>
  </defs>
  <g data-v-fde0c5aa="" id="d0b32eac-2657-4a6a-b00e-13f66ddb0a8e" stroke="none" fill="url(#e0b84c97-7123-4f6f-96f7-eb359b8dae8c)" transform="matrix(0.604056, 0, 0, 0.604056, 38.025944, 121.486732)">
    <path d="M50-2.797c-4.349 0-7.966 3.185-8.653 7.338C19.672 8.6 3.268 27.618 3.268 50.471c0 25.81 20.922 46.732 46.732 46.732 25.811 0 46.732-20.922 46.732-46.732 0-22.853-16.404-41.871-38.08-45.929C57.966.388 54.35-2.797 50-2.797zM41.384 7.499c.718 4.116 4.294 7.229 8.616 7.229s7.897-3.112 8.616-7.229C78.688 11.5 93.812 29.222 93.812 50.471c0 24.197-19.614 43.812-43.812 43.812-24.196 0-43.812-19.614-43.812-43.812 0-21.249 15.124-38.971 35.196-42.972z"/>
    <path d="M67.524 50.471c0 9.679-7.846 17.524-17.524 17.524s-17.524-7.846-17.524-17.524S40.322 32.947 50 32.947s17.524 7.845 17.524 17.524z"/>
  </g>
</svg>